<?xml version="1.0" encoding="utf-8"?>
<!-- Generator: Adobe Illustrator 26.3.1, SVG Export Plug-In . SVG Version: 6.00 Build 0)  -->
<svg version="1.1" id="レイヤー_1" xmlns="http://www.w3.org/2000/svg" xmlns:xlink="http://www.w3.org/1999/xlink" x="0px"
	 y="0px" viewBox="0 0 40 40" enable-background="new 0 0 40 40" xml:space="preserve">
<g>
	<path fill="#FFFFFF" d="M31.212,19.527c-0.676-2.635-3.066-4.582-5.912-4.582c-0.372,0-0.735,0.035-1.088,0.099
		c-1.166-2.748-3.889-4.676-7.062-4.676c-3.988,0-7.265,3.044-7.634,6.936c-3.085,0.305-5.495,2.907-5.495,6.073
		c0,3.37,2.732,6.103,6.103,6.103h20.878c2.75,0,4.979-2.229,4.979-4.979C35.98,21.821,33.863,19.637,31.212,19.527z"/>
	<path fill="#8A8A8A" d="M31.001,29.953H10.123c-3.627,0-6.577-2.951-6.577-6.577c0-3.268,2.357-5.997,5.542-6.495
		c0.565-4.009,3.966-6.987,8.061-6.987c3.152,0,5.996,1.804,7.346,4.627c3.196-0.398,6.149,1.577,7.081,4.558
		c2.761,0.287,4.877,2.605,4.877,5.422C36.453,27.507,34.008,29.953,31.001,29.953z M17.15,10.841c-3.731,0-6.811,2.797-7.162,6.507
		l-0.037,0.389l-0.388,0.039c-2.89,0.285-5.068,2.692-5.068,5.6c0,3.104,2.525,5.629,5.629,5.629h20.878
		c2.484,0,4.505-2.02,4.505-4.505c0-2.423-1.895-4.4-4.313-4.5l-0.352-0.015l-0.087-0.342c-0.72-2.807-3.508-4.672-6.457-4.134
		l-0.373,0.068l-0.148-0.349C22.645,12.564,20.044,10.841,17.15,10.841z"/>
</g>
<g>
	<path fill="#8A8A8A" d="M12.306,23.811l-0.494,1.484H10.44l2.183-6.429h1.745l2.286,6.429H15.19l-0.532-1.484H12.306z
		 M14.359,22.673c-0.457-1.362-0.746-2.23-0.905-2.809h-0.009c-0.159,0.635-0.476,1.642-0.84,2.809H14.359z"/>
	<path fill="#8A8A8A" d="M18.22,18.866h2.66c1.372,0,2.295,0.765,2.295,1.987c0,1.399-1.054,2.044-2.323,2.044h-1.241v2.398H18.22
		V18.866z M19.611,21.786h1.064c0.644,0,1.101-0.251,1.101-0.905c0-0.662-0.485-0.915-1.073-0.915h-1.092V21.786z"/>
	<path fill="#8A8A8A" d="M26.402,18.866v6.429h-1.39v-6.429H26.402z"/>
</g>
</svg>
